<svg viewBox="0 0 423 371" fill-rule="evenodd" clip-rule="evenodd" stroke-linejoin="round" stroke-miterlimit="2" id="aditya_birla_health">
    <path d="M0 263.281l422.795-.303V0H0v263.281z" fill="#cd1f36"></path>
    <path d="M0 370.987h422.795V262.372L0 262.675v108.312z" fill="#cd8680"></path>
    <path fill="#fefefe" d="M109.221 20.753h204.505v129.671H109.221z"></path>
    <path d="M168.906 77.106l.303-.152.606-.454c.303-.455.454-.455.606-.757l2.575-3.333c.151-.303.454-.606.606-.909l18.33-22.874c2.575-3.181 18.632-23.48 19.238-23.935 0 0 .152 0 .152.152 0 0 .151 0 .151.151 0 0 .152 0 .152.152l15.603 19.541c.303.303.454.606.606.758 1.817 2.12 6.059 7.725 7.271 9.089l3.332 4.09c.303.303.303.454.606.909l13.331 16.511c.606.758 1.06 1.061 1.212 2.121h.151c0-1.06 3.182-5.908 3.788-6.817l20.299-33.175c.757-1.212 7.422-12.422 8.18-13.179h-149.97l8.18 13.179 24.237 39.386.455-.454z" fill="#f4712a"></path>
    <path d="M113.462 101.343c4.393 1.97 26.174 12.037 26.604 12.196l15.358-19.315c.909-1.061 13.33-16.209 13.482-17.118L144.668 37.72l-8.18-13.179h-23.026v76.802z" fill="#a41a17"></path>
    <path d="M254.04 77.712c.758.303 17.876 22.42 21.663 26.813l7.12 9.089c.908-.152 5.453-2.424 6.665-3.03 2.121-1.06 4.393-2.121 6.665-3.03 4.393-1.969 8.938-4.09 13.331-6.059V24.541H286.61c-.758.757-7.575 12.118-8.18 13.179l-20.299 33.175c-.606.909-3.788 5.756-3.788 6.817h-.303z" fill="#a51b18"></path>
    <path d="M211.473 87.861c3.939.152 7.271.303 11.059 1.061 2.423.454 7.725 1.666 9.392 2.726l3.029 1.061s6.969 3.635 7.12 3.635c.758-.757 2.272-3.332 2.878-4.544.909-1.666 1.97-3.181 2.879-4.696.757-1.363 5.302-8.938 5.907-9.241-.151-1.06-.757-1.363-1.211-2.12l-13.331-16.512c-.303-.455-.303-.606-.606-.909l-3.333-4.09c-1.212-1.364-5.605-6.969-7.271-9.089-.303-.303-.454-.455-.606-.758l-15.603-19.541s-.151 0-.151-.152c0 0-.152 0-.152-.151 0 0-.151 0-.151-.152v63.169l.151.303z" fill="#f5cd52"></path>
    <path d="M169.209 76.954c-.606.909.151-.151-.152.606.758.909 9.089 14.997 10.907 17.724.455.758.455.909.909 1.212.455-.757 4.999-2.727 6.211-3.333 2.424-1.06 4.545-1.969 7.12-2.726 5.302-1.667 11.21-2.727 17.269-2.576V24.692c-.606.303-16.815 20.754-19.238 23.935l-18.33 22.874c-.152.303-.455.606-.606.909l-2.575 3.333c-.303.302-.303.454-.606.757l-.606.454h-.303z" fill="#d61d25"></path>
    <path d="M158.15 121.945h-.151c2.272.758 4.544 2.273 6.665 3.182 2.273.909 4.242 1.969 6.666 3.029 4.393 1.97 8.786 4.09 13.33 6.06 3.939 1.818 9.695 4.696 13.179 6.059 2.273.909 4.545 2.121 6.666 3.03l6.514 3.03c-4.696-.303-10.15-.152-14.694 0-9.089.151-19.845 0-28.934 0-3.03 0-12.119.454-14.391-.152v.303h117.249v-.303c-1.363.455-12.118.152-14.391.152h-14.542c-9.544 0-19.542.303-29.085 0-.606-.303-.303-.303-.606 0-1.061-.758-6.363-10.15-7.878-12.422-.606-.909-1.211-2.121-1.817-3.181-2.879-4.999-6.514-10.604-9.544-15.603-1.666-2.727-11.058-17.573-11.361-18.633-1.212.454-2.727 1.666-3.787 2.424-.606.454-1.061.909-1.667 1.212-1.666 1.211-2.272 1.969-3.181 2.726l-4.393 4.393c-.909 1.212-1.818 2.121-2.727 3.333-3.635 4.999-3.635 5.302-6.665 11.058l-.455.303z" fill="#e12f23"></path>
    <path d="M212.231 146.183l39.386-18.178c2.12-1.061 4.393-2.121 6.665-3.03 1.666-.606 5.453-2.575 6.665-3.03l-.151-.151c-.606-1.06-1.515-2.878-2.121-4.09-1.818-3.333-2.727-4.242-4.09-6.211l-.606-.909c-2.575-3.181-3.03-3.636-5.756-6.362-1.818-1.818-7.726-6.969-9.998-7.878 0 0 0 .152-.152.152l-7.574 12.422c-.606.909-1.212 2.121-1.969 3.029-.606 1.061-1.364 2.121-1.97 3.182-1.212 2.12-2.424 4.09-3.787 6.059-4.999 7.877-10.149 17.118-15.148 24.692.303.303-.455.455.454.152l.152.151z" fill="#e42f24"></path>
    <path d="M181.025 96.344v.152c.303 1.06 9.695 16.057 11.361 18.633 3.03 4.999 6.665 10.604 9.544 15.603.606.909 1.211 2.272 1.817 3.181 1.515 2.272 6.817 11.664 7.878 12.422V87.71c-6.06-.152-11.816 1.06-17.27 2.575-2.575.758-4.847 1.666-7.119 2.727-1.061.454-5.605 2.575-6.211 3.332z" fill="#f37a2a"></path>
    <path d="M211.473 146.335c.455-.152 0-.152.606 0v-.303c-.909.303-.151.151-.454-.152 4.999-7.574 10.149-16.815 15.148-24.692 1.363-2.121 2.424-3.939 3.787-6.059.606-1.061 1.212-2.121 1.97-3.182.605-1.06 1.363-2.12 1.969-3.029l7.574-12.422s0-.152.152-.152v-.151c-6.219-3.976-16.967-6.968-19.239-7.423-3.939-.757-7.12-.909-11.058-1.06v58.625h-.455z" fill="#ac1c1b"></path>
    <path d="M264.796 121.945l.151.152c1.212 3.636 2.879 6.817 3.787 11.058.758 3.333 1.818 9.847 1.515 13.18v.303h34.69c1.061 0 4.09.302 4.696-.303-.757-.455-18.481-22.875-19.844-24.541l-4.999-6.211c-1.212-1.363-1.061-1.818-1.818-1.818-1.515.758-3.03 1.364-4.544 2.121-1.515.757-3.03 1.363-4.545 1.969-2.878 1.364-6.059 2.879-8.938 4.09h-.151z" fill="#f5d253"></path>
    <path d="M140.141 113.563s12.253 5.656 14.071 6.413c.606.303 1.212.606 1.969.909.758.303 1.363.757 2.121.909 3.03-5.756 3.03-6.059 6.665-11.058.909-1.212 1.818-2.121 2.727-3.333l4.393-4.393c.909-.758 1.666-1.515 3.181-2.727.606-.454 1.061-.757 1.667-1.212 1.06-.757 2.575-1.969 3.787-2.424v-.151c-.455-.303-.455-.454-.909-1.212-1.818-2.727-10.15-16.815-10.907-17.724.303-.757-.455.303.151-.606l-.303.152c-.151.909-12.573 16.057-13.482 17.118l-15.131 19.339z" fill="#f16a2a"></path>
    <path d="M242.225 96.344v.152c2.272.909 8.18 5.908 9.998 7.877 2.726 2.727 3.181 3.181 5.756 6.363l.606.908c1.363 2.121 2.424 3.03 4.09 6.211.606 1.212 1.363 3.03 2.121 4.09 2.878-1.211 6.211-2.878 8.937-4.09 1.515-.606 3.03-1.363 4.545-1.969 1.515-.757 3.03-1.363 4.545-2.121l.151-.151-7.12-9.089c-3.787-4.393-20.753-26.51-21.662-26.813h-.152c-.454.303-4.999 8.029-5.907 9.24-.909 1.515-1.97 3.182-2.879 4.696-.757 1.212-2.121 3.788-2.878 4.545l-.151.151z" fill="#f26d2a"></path>
    <path d="M140.074 113.665s-25.854 32.518-26.309 32.67l39.386.303v-.303c-.303-3.485.758-9.695 1.515-13.18.455-1.969 1.061-3.938 1.667-5.756.606-1.666 1.666-3.939 2.12-5.454h.152c-.758-.303-1.364-.605-2.121-.908a24.727 24.727 0 0 0-1.969-.909c-1.818-.909-14.286-6.376-14.441-6.463z" fill="#f8d652"></path>
    <path d="M212.231 146.183v.303c9.543.303 19.39 0 29.085 0h14.542c2.424 0 13.028.303 14.391-.151.303-3.333-.757-9.847-1.515-13.18-.908-4.241-2.575-7.422-3.787-11.058-1.212.454-4.999 2.424-6.665 3.03-2.272.909-4.393 2.12-6.665 3.029l-39.386 18.179v-.152z" fill="#a51b18"></path>
    <path d="M152.697 146.335c2.272.605 53.474-.152 58.019.151l-6.514-3.03c-2.121-.909-44.385-20.45-46.506-21.359-.455 1.363-1.515 3.787-2.121 5.453-.606 1.818-1.212 3.788-1.666 5.757-.758 3.484-1.818 9.695-1.515 13.179l.303-.151z" fill="#a41a17"></path>
    <path d="M113.462 146.335c.455-.152 26.51-32.721 26.51-32.721-.236-.058-22.268-10.15-26.661-12.119v44.991l.151-.151z" fill="#f26d2a"></path>
    <path d="M282.823 113.614l-.152.151c.758.152.606.455 1.818 1.818l4.999 6.211c1.363 1.818 19.239 24.238 19.844 24.541v-44.992c-4.241 1.97-8.786 4.242-13.33 6.06-2.272.909-4.393 2.121-6.666 3.03-1.211.606-5.756 2.726-6.665 3.029l.152.152z" fill="#f16a2a"></path>
    <path d="M139.972 351.445l6.666-1.212c.605 3.182 2.423 4.696 5.302 4.696 1.666 0 2.726-.303 3.635-.908.758-.606 1.212-1.364 1.212-2.273 0-.606-.151-1.212-.606-1.515-.303-.454-1.06-.757-2.121-.908-5.453-1.364-8.937-2.727-10.452-3.939-1.818-1.515-2.727-3.787-2.727-6.514 0-2.727.909-4.999 2.727-6.665 1.818-1.667 4.393-2.424 7.877-2.424 3.333 0 5.756.606 7.574 1.818 1.667 1.212 2.879 3.181 3.636 6.059l-6.211 1.364c-.606-2.424-2.121-3.636-4.696-3.636-1.666 0-2.878.303-3.484.757-.758.455-1.061 1.061-1.061 1.818 0 .606.303 1.212.909 1.666.606.455 2.576 1.061 5.908 1.97 3.787 1.06 6.211 2.121 7.575 3.635 1.363 1.364 1.969 3.333 1.969 5.757 0 2.878-1.061 5.15-3.03 7.12-1.969 1.817-4.847 2.726-8.483 2.726-3.181 0-5.908-.757-8.029-2.272-2.121-1.515-3.484-3.787-4.09-6.817v-.303zm157.545-12.421l-6.514 1.363c-.455-3.181-1.97-4.696-4.545-4.696-1.666 0-3.029.606-3.938 1.969-1.061 1.364-1.515 3.636-1.515 6.817 0 3.484.454 6.059 1.515 7.423 1.06 1.515 2.272 2.121 4.09 2.121 1.212 0 2.272-.455 3.029-1.212.758-.758 1.364-2.273 1.667-4.393l6.514 1.363c-1.364 7.12-5.302 10.755-11.665 10.755-4.09 0-7.12-1.514-9.089-4.544-1.969-3.03-3.03-6.665-3.03-10.907 0-4.999 1.061-8.938 3.333-11.513 2.272-2.575 5.151-3.939 8.786-3.939 2.878 0 5.302.758 7.272 2.273 1.817 1.515 3.181 3.938 3.938 7.12h.152zm-111.342 20.753v-4.393a9.733 9.733 0 0 1-3.636 3.787c-1.514.909-3.029 1.363-4.696 1.363-1.666 0-3.181-.454-4.393-1.211-1.363-.909-2.272-1.97-2.878-3.636-.606-1.515-.909-3.787-.909-6.665v-18.785h6.666v13.634c0 3.939.151 6.362.303 7.423.151 1.06.606 1.818 1.363 2.424.757.606 1.515.908 2.575.908 1.061 0 2.121-.454 3.03-1.06.909-.757 1.515-1.666 1.818-2.878.303-1.212.454-3.787.454-7.726V330.54h6.665v29.54h-6.21l-.152-.303zm131.186-9.392l6.666 1.363c-.909 3.03-2.273 5.151-4.091 6.666-1.817 1.363-4.09 2.12-6.816 2.12-3.788 0-6.666-1.211-8.635-3.635-2.424-2.727-3.636-6.666-3.636-11.665 0-4.999 1.212-8.937 3.636-11.815 1.969-2.576 4.696-3.788 7.877-3.788 3.636 0 6.363 1.212 8.483 3.788 2.424 2.878 3.484 7.271 3.484 13.027v.909h-16.663c0 2.272.606 4.09 1.666 5.454 1.061 1.212 2.273 1.969 3.788 1.969 2.12 0 3.635-1.363 4.241-4.242v-.151zm-93.921-11.058l-6.059-1.212c.757-3.03 1.969-5.151 3.636-6.514 1.666-1.364 4.09-1.97 7.271-1.97 2.878 0 4.999.455 6.514 1.212 1.515.758 2.575 1.818 3.181 3.03.606 1.363.909 3.636.909 7.12v9.089c0 2.575.151 4.544.303 5.756.151 1.212.606 2.576 1.212 3.939h-6.514l-.909-3.181c-1.212 1.363-2.424 2.272-3.636 2.878-1.363.606-2.726.909-4.09.909-2.423 0-4.393-.757-6.059-2.424-1.515-1.666-2.424-3.635-2.424-6.362 0-1.667.303-3.181.909-4.393a7.479 7.479 0 0 1 2.727-3.03c1.212-.757 3.029-1.363 5.605-1.969 3.029-.758 5.302-1.364 6.514-1.97 0-1.666-.152-2.726-.303-3.181-.303-.454-.606-.909-1.364-1.212-.606-.303-1.515-.454-2.727-.454-1.211 0-2.12.303-2.878.757-.606.455-1.212 1.515-1.666 2.879l-.152.303zm-88.012 20.45h-6.666v-15.149c0-3.029-.151-4.999-.303-6.059-.303-1.06-.757-1.818-1.363-2.272-.606-.606-1.515-.758-2.272-.758-1.061 0-2.121.303-3.03 1.061-.909.757-1.515 1.666-1.969 2.878-.303 1.212-.606 3.484-.606 6.968v13.482h-6.666v-29.539h6.211v4.393c1.061-1.666 2.273-2.878 3.787-3.787 1.364-.909 2.879-1.212 4.545-1.212 1.969 0 3.636.454 4.999 1.515 1.363.909 2.272 2.272 2.727 3.787.454 1.515.757 3.787.757 6.665v18.33l-.151-.303zm133.004 0h-6.666v-15.149c0-3.029-.151-4.999-.303-6.059-.303-1.06-.757-1.818-1.363-2.272-.606-.606-1.515-.758-2.272-.758-1.061 0-2.121.303-3.03 1.061-.909.757-1.515 1.666-1.969 2.878-.303 1.212-.606 3.484-.606 6.968v13.482h-6.666v-29.539h6.211v4.393c1.061-1.666 2.272-2.878 3.787-3.787 1.364-.909 2.878-1.212 4.545-1.212 1.969 0 3.635.454 4.999 1.515 1.363.909 2.272 2.272 2.727 3.787.454 1.515.757 3.787.757 6.665v18.33l-.151-.303zm-169.815 0v-40.749h6.968v40.749h-6.968zm112.437-30.145a7.033 7.033 0 0 1 4.358 1.514l-2.121 6.817c-1.06-.909-2.121-1.212-3.181-1.212-.909 0-1.818.303-2.424 1.061-.757.606-1.212 1.817-1.515 3.635-.303 1.667-.454 4.848-.454 9.544v8.786h-6.666v-29.54h6.211v4.242c1.061-1.969 1.97-3.333 2.878-3.939.909-.606 1.818-.909 2.879-.909l.035.001zm21.324 16.057c-.909.303-2.121.757-3.939 1.212-2.12.454-3.484 1.06-4.09 1.666-.606.606-.909 1.515-.909 2.424 0 1.06.303 2.121 1.061 2.878.757.757 1.666 1.212 2.727 1.212.908 0 1.817-.303 2.878-.909.909-.606 1.515-1.363 1.969-2.272.303-.909.606-2.424.606-4.696v-1.515h-.303zm85.286-3.181c0-2.273-.606-4.09-1.515-5.151-.909-1.212-2.12-1.818-3.484-1.818-1.363 0-2.575.606-3.636 1.818-1.06 1.212-1.514 2.878-1.514 5.151h10.149zm-168.906-37.114l6.666 1.363c-.909 3.03-2.273 5.151-4.09 6.666-1.818 1.363-4.091 2.12-6.817 2.12-3.787 0-6.666-1.212-8.635-3.635-2.424-2.727-3.636-6.666-3.636-11.665 0-4.999 1.212-8.937 3.636-11.815 1.969-2.576 4.696-3.788 7.877-3.788 3.636 0 6.363 1.212 8.483 3.788 2.424 2.878 3.485 7.271 3.485 13.027v.909h-16.664c0 2.272.606 4.09 1.667 5.454 1.06 1.211 2.272 1.969 3.787 1.969 2.121 0 3.635-1.363 4.241-4.242v-.151zm64.836-20.148v6.211h-4.545v11.968c0 2.575 0 4.09.152 4.544.303.758.757 1.06 1.666 1.06.606 0 1.515-.302 2.727-.757l.606 6.059c-1.515.758-3.333 1.212-5.302 1.212-1.666 0-3.03-.454-4.09-1.212-1.061-.757-1.667-1.969-2.121-3.332-.303-1.061-.454-3.333-.454-6.514v-12.876h-3.03v-6.211h3.03v-5.908l6.665-4.545v10.453h4.544l.152-.152zm-47.263 9.089l-6.06-1.211c.758-3.03 1.969-5.151 3.636-6.514 1.666-1.364 4.09-1.97 7.271-1.97 2.878 0 4.999.455 6.514 1.212 1.515.758 2.575 1.818 3.181 3.03.606 1.363.909 3.636.909 7.12v9.089c0 2.575.152 4.544.303 5.756.152 1.212.606 2.576 1.212 3.939h-6.514l-.909-3.181c-1.212 1.363-2.424 2.272-3.636 2.878-1.363.606-2.726.909-4.09.909-2.423 0-4.393-.758-6.059-2.424-1.515-1.666-2.424-3.636-2.424-6.362 0-1.667.303-3.181.909-4.393a7.479 7.479 0 0 1 2.727-3.03c1.212-.757 3.03-1.363 5.605-1.969 3.03-.758 5.302-1.364 6.514-1.97 0-1.666-.152-2.726-.303-3.181-.303-.454-.606-.909-1.364-1.212-.606-.303-1.515-.454-2.726-.454-1.212 0-2.121.303-2.879.757-.606.455-1.211 1.515-1.666 2.878l-.151.303zm58.776-5.302a11.953 11.953 0 0 1 3.484-3.332c1.212-.758 2.727-1.061 4.242-1.061 1.969 0 3.635.455 4.999 1.515 1.363 1.061 2.272 2.424 2.878 4.393.454 1.364.606 3.787.606 6.969v17.42h-6.666v-15.603c0-3.635-.303-5.907-.757-6.816-.606-1.212-1.818-1.818-3.484-1.818-1.667 0-3.03.606-3.939 1.969-.909 1.363-1.363 3.787-1.363 7.423v14.845h-6.666v-40.749h6.666v14.845zm-36.66 25.753v-40.75h6.666v40.75h-6.666zm-89.527 0v-40.75h6.968v16.058h13.785v-16.058h6.968v40.75h-6.968v-17.724h-13.785v17.724H98.92zm76.348-14.088c-.909.303-2.121.757-3.938 1.212-2.121.454-3.485 1.06-4.091 1.666-.605.606-.908 1.515-.908 2.424 0 1.06.303 2.121 1.06 2.878.757.757 1.666 1.212 2.727 1.212.909 0 1.818-.303 2.878-.909.909-.606 1.515-1.363 1.969-2.272.303-.909.606-2.424.606-4.696v-1.515h-.303zm-26.207-3.181c0-2.273-.606-4.09-1.515-5.151-.908-1.212-2.12-1.818-3.484-1.818-1.363 0-2.575.606-3.635 1.818-1.061 1.212-1.515 2.878-1.515 5.151h10.149zm78.47-128.914h9.695c2.575 0 4.241.454 5.302 1.515 1.06 1.06 1.514 2.726 1.514 5.15v1.818c0 1.666-.303 2.878-.909 3.787-.605.909-1.363 1.364-2.575 1.666 1.212.303 2.121 1.061 2.878 1.97.606 1.06 1.061 2.272 1.061 3.787v1.666c0 2.727-.606 4.696-1.515 5.757-1.06 1.06-3.03 1.666-5.756 1.666h-9.544v-28.631l-.151-.151zm20.299 28.782v-28.631h5.604v28.631h-5.604zm29.539 0v-28.631h5.605v21.966h9.089v6.665h-14.694zm16.058 0l5.907-28.631h8.484l5.756 28.631h-5.908l-.909-4.999h-6.514l-.909 4.999h-5.907zm-161.938-.151v-28.783h10.452c2.879 0 4.999.909 6.06 2.576 1.212 1.666 1.818 4.696 1.818 8.937v5.757c0 4.241-.606 7.271-1.818 8.937-1.212 1.667-3.181 2.576-6.06 2.576h-10.452zm63.775 0l5.908-28.631h8.483l5.757 28.631h-5.908l-.909-4.999h-6.514l-.909 4.999h-5.908zm-86.195-.152l5.908-28.631h8.483l5.757 28.631h-5.908l-.909-4.999h-6.514l-.909 4.999h-5.908zm44.082 0v-28.631h5.605v28.631h-5.605zm24.389-22.268h-5.302v22.268h-5.453v-22.268h-5.302v-6.363h16.057v6.363zm10.453 4.696l3.636-11.059h6.21l-6.968 18.633v9.998h-5.453v-9.998l-7.12-18.633h6.059l3.636 11.059zm75.637-11.058c2.027.009 3.623.16 4.65.454 1.212.303 2.121.757 3.03 1.515a8.71 8.71 0 0 1 2.272 2.878c.454 1.06.757 2.272.757 3.484a9.405 9.405 0 0 1-1.211 4.696c-.758 1.363-1.97 2.424-3.485 3.181l4.696 12.271h-5.756l-4.545-11.21h-1.363v11.21h-5.756v-28.48h6.513l.198.001zm-30.646 17.269v5.15h4.09c.606 0 1.06-.151 1.363-.454.303-.303.455-.909.455-1.515v-1.212c0-.757-.152-1.212-.455-1.515-.303-.303-.757-.454-1.363-.454h-4.09zm-96.042-10.756v15.755h4.091c1.211 0 2.12-.303 2.423-.909.455-.606.606-2.121.606-4.545v-4.696c0-2.424-.151-3.938-.606-4.696-.454-.606-1.212-.909-2.423-.909h-4.091zm166.634-.303l-2.121 11.816h4.393l-1.969-11.816h-.303zm-98.162-.151l-2.121 11.816h4.393l-1.969-11.816h-.303zm-86.195-.152l-2.121 11.816h4.393l-1.969-11.816h-.303zm143.608-.757v7.877h1.211c1.515 0 2.727-.303 3.485-1.06.757-.758 1.211-1.667 1.211-3.03 0-1.363-.454-2.272-1.211-2.878-.758-.606-2.121-.909-3.788-.909h-.908zm-29.843 1.363v5.151h3.939c.606 0 1.06-.152 1.211-.455.303-.303.455-.757.455-1.515v-1.211c0-.758-.152-1.212-.455-1.515-.302-.303-.605-.455-1.211-.455h-3.939zm-99.677 56.05v1.212c0 5.302-.758 9.089-2.424 11.512-1.666 2.273-4.393 3.485-8.029 3.485h-2.575c-4.09 0-6.968-1.212-8.483-3.636-1.666-2.424-2.424-6.817-2.424-13.028v-8.483c0-6.211.758-10.452 2.424-13.028 1.666-2.423 4.545-3.635 8.483-3.635h2.121c4.09 0 6.817 1.06 8.483 3.181 1.666 2.121 2.424 5.908 2.424 11.361v.758h-7.726v-.758c0-1.818-.303-3.181-.909-3.938-.606-.758-1.666-1.212-3.181-1.212-1.666 0-2.727.454-3.333 1.363-.606.909-.757 3.181-.757 6.666v6.665c0 3.484.303 5.605.757 6.514.606.909 1.667 1.363 3.333 1.363 1.515 0 2.575-.454 3.181-1.212.606-.757.909-2.272.909-4.393v-.909h7.877l-.151.152zm17.421.303h6.362l-2.878-16.967h-.455l-2.878 16.967h-.151zm-11.059 15.451l8.332-40.749h11.816l8.028 40.749h-8.331l-1.364-7.12h-9.089l-1.363 7.12h-8.332.303zm36.508.152V206.02h13.482c3.787 0 6.514 1.06 8.18 3.181 1.667 2.121 2.424 5.605 2.424 10.452v2.727c0 4.848-.757 8.332-2.424 10.453-1.666 2.12-4.393 3.181-8.18 3.181h-5.756v10.907h-7.726zm7.726-20.148h5.302c1.212 0 2.121-.303 2.575-.909.455-.606.606-1.969.606-3.787v-2.424c0-1.666-.303-2.726-.757-3.484-.455-.606-1.364-1.06-2.727-1.06h-4.999v11.664zm25.601 19.996V206.02h7.726v40.749h-7.726zm24.237 0v-31.66h-7.422v-9.089h22.571v9.089h-7.423v31.66h-7.726zm28.48-15.451h6.362l-2.878-16.967h-.455l-2.878 16.967h-.151zm-11.059 15.451l8.332-40.749h11.816l8.028 40.749h-8.331l-1.364-7.12h-9.089l-1.363 7.12h-8.332.303zm36.66.152V206.02h7.725v31.357h18.027v9.544h-25.752z" fill="#fefefe" fill-rule="nonzero"></path>
  </svg>