<svg viewBox="0 0 597 247" fill-rule="evenodd" clip-rule="evenodd" stroke-linejoin="round" stroke-miterlimit="2" id="aditya_birla_capital">
<path d="M0 246.25l596.667-.417V0H0v246.25z" fill="#cd1f36"/>
<path fill="#fefefe" d="M37.917 64.583h185v117.5h-185z"/>
<path d="M91.667 115.833s37.916-47.5 38.75-47.916l37.916 48.333c0-.833 29.167-48.333 29.167-48.333H62.083c2.5 4.166 5 7.916 7.5 12.083l22.084 35.833z" fill="#f4712a"/>
<path d="M41.667 137.5c4.166 1.667 7.916 3.75 12.083 5.417 2.083.833 4.167 1.666 5.833 2.916 1.25.834 5.834 2.917 5.834 2.917l14.166-17.5c.834-.833 12.084-14.583 12.084-15.417 0 0-27.084-43.75-29.584-47.916H41.667V137.5z" fill="#a41a17"/>
<path d="M168.333 116.25c.417.417 17.084 20.417 20.417 24.167l6.25 8.333c.833 0 19.583-9.583 23.75-11.25V67.917H197.5S190.417 78.75 189.583 80l-21.25 36.25z" fill="#a51b18"/>
<path d="M130.417 125.417c3.75 0 27.5 7.5 27.5 7.5.833-.834 10-16.25 10.416-16.667 0-.833-37.916-48.333-37.916-48.333v57.5z" fill="#f5cd52"/>
<path d="M91.667 115.833c.416 1.25 10.833 16.667 11.25 17.084.833-.834 5-2.5 5.833-2.917l6.25-2.5c5-1.667 10-2.5 15.833-2.5l-.416-57.083c-.417.416-38.75 47.5-38.75 47.916z" fill="#d61d25"/>
<path d="M82.5 156.25c2.083.833 4.167 2.083 5.833 2.917 2.084.833 40.417 19.166 41.25 19.166h.834c-.834-.833-27.084-44.583-27.5-45.416-.834.416-6.667 4.583-11.667 10-4.167 4.583-7.5 10.833-8.75 13.333z" fill="#e12f23"/>
<path d="M130.417 178.333s47.916-21.666 48.75-22.083c0 0-1.667-2.917-2.5-4.167-1.667-2.916-7.084-9.583-9.584-12.083-1.666-1.667-7.083-6.25-9.166-7.083l-27.5 45.416z" fill="#e42f24"/>
<path d="M102.917 132.917c.416 1.25 26.666 44.583 27.5 45.416l.416-53.333c-5.416 0-10.833.833-15.833 2.5-2.5.833-4.583 1.667-6.25 2.5-1.25.417-5 2.083-5.833 2.917z" fill="#f37a2a"/>
<path d="M130.417 178.333c4.583-7.083 27.5-45.416 27.5-45.416s-5.834-2.917-12.084-5c-6.25-2.084-12.916-2.917-15-2.917l-.416 53.333s.416-.416 0 0z" fill="#ac1c1b"/>
<path d="M178.75 156.25c1.25 3.333 5.417 18.75 5 22.083v.417l35.417-.417-23.75-30s-13.75 6.667-16.667 7.917z" fill="#f5d253"/>
<path d="M65.833 148.333c.417 0 1.667.834 2.084 1.25.416 0 14.166 6.25 15 6.25 1.25-2.5 4.583-8.333 9.166-13.333 4.584-5 10.834-9.167 11.25-9.583l-11.25-17.084c0 .834-11.666 14.167-12.5 15l-13.75 17.5z" fill="#f16a2a"/>
<path d="M157.917 132.917l.416.416c.834.417 6.667 5 11.667 10.834 5 5.833 8.333 12.5 8.75 12.916 2.5-1.25 15.417-7.5 16.667-8.333l-27.084-32.083-10.416 16.25z" fill="#f26d2a"/>
<path d="M130.417 178.333h40.416c2.084 0 12.917.417 12.917.417s0-5.417-1.25-10.833c-.833-5-3.333-10-3.75-11.667-1.25.417-48.333 22.083-48.333 22.083z" fill="#a51b18"/>
<path d="M77.5 178.333c2.083.417 10.417 0 12.917 0 8.333 0 35.833-.416 40 0l-6.25-2.916c-2.084-.834-40-18.75-41.667-19.584-.417 1.25-4.583 7.5-5 9.584-.833 3.333-.833 9.583 0 12.916z" fill="#a41a17"/>
<path d="M65.833 148.333s-20-9.166-24.166-10.833v40.833l24.166-30z" fill="#f26d2a"/>
<path d="M219.167 178.333l-.417-41.666c-3.75 1.666-23.333 11.666-23.333 11.666s23.333 30 23.75 30z" fill="#f16a2a"/>
<path d="M65.833 148.333s-23.75 29.584-24.166 30h36.25s-.834-4.583.416-10.833 4.167-11.667 4.167-11.667l-16.667-7.5z" fill="#f8d652"/>
<path d="M427.083 64.583h14.584c3.75 0 6.25.834 7.916 2.084 1.667 1.25 2.084 4.166 2.084 7.5v2.5c0 2.5-.417 4.166-1.25 5.833-.834 1.25-2.084 2.083-3.75 2.5 1.666.417 3.333 1.667 4.166 2.917.834 1.666 1.667 3.333 1.667 5.833v2.917c0 4.166-.833 7.083-2.083 8.75-1.667 1.666-4.584 2.5-8.75 2.5H427.5l-.417-43.334zm-142.916 42.5v-42.5h15.416c4.167 0 7.5 1.25 9.167 3.75 1.667 2.5 2.5 7.084 2.5 13.334v8.75c0 6.25-.833 10.833-2.5 13.333s-5 3.75-9.167 3.75l-15.416-.417zm69.166-42.5h9.167l5.417 16.667 5.416-16.667h9.167l-10 27.917v15h-7.917v-15l-11.25-27.917zm25.834 42.917l8.75-42.5h12.5l8.75 42.5h-8.75l-1.25-7.5h-9.584l-1.25 7.5h-9.166zm122.083 0V65h8.333v32.5h13.334v10H501.25zm23.75 0l8.75-42.5h12.5l8.75 42.5h-8.75L545 100h-9.583l-1.25 7.5H525zm-67.917 0V65h8.334v42.5h-8.334zm-206.25-.417l8.75-42.5h12.5l8.75 42.5h-8.75l-1.666-7.5h-9.584l-1.25 7.5h-8.75zm65.417 0v-42.5h8.333v42.5h-8.333zm20.417 0V73.75h-7.917v-9.583h23.75v9.583h-7.917v33.333h-7.916zm134.166 0v-42.5h9.584c3.333 0 5.833.417 7.083.834 1.667.416 3.333 1.25 4.583 2.083 1.25 1.25 2.5 2.5 3.334 4.167.833 1.666 1.25 3.333 1.25 5 0 2.5-.834 5-1.667 7.083-1.25 2.083-2.917 3.75-5 4.583l7.083 18.334h-8.75L481.667 90h-2.084v16.667l-8.75.416zm-178.75-9.166h6.25c1.667 0 3.334-.417 3.75-1.25.834-.834.834-3.334.834-6.667v-7.083c0-3.75-.417-5.834-.834-7.084-.833-.833-1.666-1.25-3.75-1.25h-6.25v23.334zM435 90v7.917h6.25c.833 0 1.667-.417 2.083-.834.417-.416.834-1.25.834-2.083v-1.667c0-1.25-.417-1.666-.834-2.083-.416-.417-1.25-.833-2.083-.833L435 90zm-44.167 1.25h6.667l-2.917-17.5h-.416l-3.334 17.5zm146.25 0h6.667l-2.917-17.5h-.416l-3.334 17.5zM262.5 90.833h6.667l-2.917-17.5h-.417l-3.333 17.5zm218.75-18.75h-1.667V83.75h1.667c2.083 0 4.167-.417 5-1.667.833-1.25 1.667-2.5 1.667-4.583s-.834-3.333-1.667-4.167c-.833-.833-2.917-1.25-5-1.25zM435 74.167v7.5h5.833c.834 0 1.667-.417 1.667-.834.417-.416.833-1.25.833-2.083v-1.667c0-1.25-.416-1.666-.833-2.083-.417-.417-.833-.833-1.667-.833H435zm-148.333 83.75v1.666c0 7.917-1.25 13.334-3.75 17.084-2.5 3.333-6.667 5-12.084 5h-3.75c-6.25 0-10.416-1.667-12.5-5.417-2.5-3.75-3.75-10-3.75-19.583v-12.5c0-9.167 1.25-15.417 3.75-19.584 2.5-3.75 6.667-5.416 12.5-5.416h3.334c6.25 0 10 1.666 12.5 4.583 2.5 3.333 3.75 8.75 3.75 17.083v1.667H275v-1.25c0-2.5-.417-4.583-1.25-5.833s-2.5-1.667-4.583-1.667c-2.5 0-4.167.833-5 2.083-.834 1.25-1.25 4.584-1.25 10v10c0 5 .416 8.334 1.25 9.584.833 1.25 2.5 2.083 5 2.083 2.083 0 3.75-.833 4.583-1.667.833-1.25 1.25-3.333 1.25-6.666v-1.25h11.667zm25.833.416h9.583l-4.166-25.416h-.834l-4.583 25.416zm-16.25 22.917l12.5-60.833h17.5l12.083 60.833h-12.5l-2.083-10.417h-13.333l-2.084 10.417H296.25c-.417 0 0 0 0 0zm54.167 0v-60.833h20c5.833 0 9.583 1.666 12.083 4.583 2.5 2.917 3.75 8.333 3.75 15.417v4.166c0 7.084-1.25 12.5-3.75 15.417s-6.667 4.583-12.083 4.583h-8.334v16.25l-11.666.417zm11.666-30H370c1.667 0 3.333-.417 3.75-1.25.417-.833.833-2.917.833-5.833v-3.75c0-2.5-.416-4.167-1.25-5-.833-.834-2.083-1.667-4.166-1.667h-7.084v17.5zm37.917 30v-60.833h11.667v60.833H400zm36.25 0v-47.083H425v-13.334h33.75v13.334H447.5v47.083h-11.25zm42.5-22.917h9.583l-4.166-25.416h-.834l-4.583 25.416zm-16.667 22.917l12.5-60.833h17.5l12.084 60.833h-12.5l-2.084-10.417H476.25l-2.083 10.417h-12.5.416zm54.584 0v-60.833h11.666v46.666H555v14.167h-38.333z" fill="#fefefe" fill-rule="nonzero"/>
</svg>
				